<?xml version="1.0" encoding="utf-8" standalone="no"?>
<!DOCTYPE svg PUBLIC "-//W3C//DTD SVG 1.1//EN"
  "http://www.w3.org/Graphics/SVG/1.1/DTD/svg11.dtd">
<!-- Created with matplotlib (https://matplotlib.org/) -->
<svg height="288pt" version="1.1" viewBox="0 0 432 288" width="432pt" xmlns="http://www.w3.org/2000/svg" xmlns:xlink="http://www.w3.org/1999/xlink">
 <defs>
  <style type="text/css">
*{stroke-linecap:butt;stroke-linejoin:round;}
  </style>
 </defs>
 <g id="figure_1">
  <g id="patch_1">
   <path d="M 0 288 
L 432 288 
L 432 0 
L 0 0 
z
" style="fill:#ffffff;"/>
  </g>
  <g id="axes_1">
   <g id="patch_2">
    <path d="M 54 252 
L 388.8 252 
L 388.8 34.56 
L 54 34.56 
z
" style="fill:#ffffff;"/>
   </g>
   <g id="matplotlib.axis_1">
    <g id="xtick_1">
     <g id="line2d_1">
      <defs>
       <path d="M 0 0 
L 0 3.5 
" id="mc530ab8370" style="stroke:#000000;stroke-width:0.8;"/>
      </defs>
      <g>
       <use style="stroke:#000000;stroke-width:0.8;" x="54" xlink:href="#mc530ab8370" y="252"/>
      </g>
     </g>
     <g id="text_1">
      <!-- 0 -->
      <defs>
       <path d="M 31.78125 66.40625 
Q 24.171875 66.40625 20.328125 58.90625 
Q 16.5 51.421875 16.5 36.375 
Q 16.5 21.390625 20.328125 13.890625 
Q 24.171875 6.390625 31.78125 6.390625 
Q 39.453125 6.390625 43.28125 13.890625 
Q 47.125 21.390625 47.125 36.375 
Q 47.125 51.421875 43.28125 58.90625 
Q 39.453125 66.40625 31.78125 66.40625 
z
M 31.78125 74.21875 
Q 44.046875 74.21875 50.515625 64.515625 
Q 56.984375 54.828125 56.984375 36.375 
Q 56.984375 17.96875 50.515625 8.265625 
Q 44.046875 -1.421875 31.78125 -1.421875 
Q 19.53125 -1.421875 13.0625 8.265625 
Q 6.59375 17.96875 6.59375 36.375 
Q 6.59375 54.828125 13.0625 64.515625 
Q 19.53125 74.21875 31.78125 74.21875 
z
" id="DejaVuSans-48"/>
      </defs>
      <g transform="translate(50.81875 266.598437)scale(0.1 -0.1)">
       <use xlink:href="#DejaVuSans-48"/>
      </g>
     </g>
    </g>
    <g id="xtick_2">
     <g id="line2d_2">
      <g>
       <use style="stroke:#000000;stroke-width:0.8;" x="95.85" xlink:href="#mc530ab8370" y="252"/>
      </g>
     </g>
     <g id="text_2">
      <!-- 250 -->
      <defs>
       <path d="M 19.1875 8.296875 
L 53.609375 8.296875 
L 53.609375 0 
L 7.328125 0 
L 7.328125 8.296875 
Q 12.9375 14.109375 22.625 23.890625 
Q 32.328125 33.6875 34.8125 36.53125 
Q 39.546875 41.84375 41.421875 45.53125 
Q 43.3125 49.21875 43.3125 52.78125 
Q 43.3125 58.59375 39.234375 62.25 
Q 35.15625 65.921875 28.609375 65.921875 
Q 23.96875 65.921875 18.8125 64.3125 
Q 13.671875 62.703125 7.8125 59.421875 
L 7.8125 69.390625 
Q 13.765625 71.78125 18.9375 73 
Q 24.125 74.21875 28.421875 74.21875 
Q 39.75 74.21875 46.484375 68.546875 
Q 53.21875 62.890625 53.21875 53.421875 
Q 53.21875 48.921875 51.53125 44.890625 
Q 49.859375 40.875 45.40625 35.40625 
Q 44.1875 33.984375 37.640625 27.21875 
Q 31.109375 20.453125 19.1875 8.296875 
z
" id="DejaVuSans-50"/>
       <path d="M 10.796875 72.90625 
L 49.515625 72.90625 
L 49.515625 64.59375 
L 19.828125 64.59375 
L 19.828125 46.734375 
Q 21.96875 47.46875 24.109375 47.828125 
Q 26.265625 48.1875 28.421875 48.1875 
Q 40.625 48.1875 47.75 41.5 
Q 54.890625 34.8125 54.890625 23.390625 
Q 54.890625 11.625 47.5625 5.09375 
Q 40.234375 -1.421875 26.90625 -1.421875 
Q 22.3125 -1.421875 17.546875 -0.640625 
Q 12.796875 0.140625 7.71875 1.703125 
L 7.71875 11.625 
Q 12.109375 9.234375 16.796875 8.0625 
Q 21.484375 6.890625 26.703125 6.890625 
Q 35.15625 6.890625 40.078125 11.328125 
Q 45.015625 15.765625 45.015625 23.390625 
Q 45.015625 31 40.078125 35.4375 
Q 35.15625 39.890625 26.703125 39.890625 
Q 22.75 39.890625 18.8125 39.015625 
Q 14.890625 38.140625 10.796875 36.28125 
z
" id="DejaVuSans-53"/>
      </defs>
      <g transform="translate(86.30625 266.598437)scale(0.1 -0.1)">
       <use xlink:href="#DejaVuSans-50"/>
       <use x="63.623047" xlink:href="#DejaVuSans-53"/>
       <use x="127.246094" xlink:href="#DejaVuSans-48"/>
      </g>
     </g>
    </g>
    <g id="xtick_3">
     <g id="line2d_3">
      <g>
       <use style="stroke:#000000;stroke-width:0.8;" x="137.7" xlink:href="#mc530ab8370" y="252"/>
      </g>
     </g>
     <g id="text_3">
      <!-- 500 -->
      <g transform="translate(128.15625 266.598437)scale(0.1 -0.1)">
       <use xlink:href="#DejaVuSans-53"/>
       <use x="63.623047" xlink:href="#DejaVuSans-48"/>
       <use x="127.246094" xlink:href="#DejaVuSans-48"/>
      </g>
     </g>
    </g>
    <g id="xtick_4">
     <g id="line2d_4">
      <g>
       <use style="stroke:#000000;stroke-width:0.8;" x="179.55" xlink:href="#mc530ab8370" y="252"/>
      </g>
     </g>
     <g id="text_4">
      <!-- 750 -->
      <defs>
       <path d="M 8.203125 72.90625 
L 55.078125 72.90625 
L 55.078125 68.703125 
L 28.609375 0 
L 18.3125 0 
L 43.21875 64.59375 
L 8.203125 64.59375 
z
" id="DejaVuSans-55"/>
      </defs>
      <g transform="translate(170.00625 266.598437)scale(0.1 -0.1)">
       <use xlink:href="#DejaVuSans-55"/>
       <use x="63.623047" xlink:href="#DejaVuSans-53"/>
       <use x="127.246094" xlink:href="#DejaVuSans-48"/>
      </g>
     </g>
    </g>
    <g id="xtick_5">
     <g id="line2d_5">
      <g>
       <use style="stroke:#000000;stroke-width:0.8;" x="221.4" xlink:href="#mc530ab8370" y="252"/>
      </g>
     </g>
     <g id="text_5">
      <!-- 1000 -->
      <defs>
       <path d="M 12.40625 8.296875 
L 28.515625 8.296875 
L 28.515625 63.921875 
L 10.984375 60.40625 
L 10.984375 69.390625 
L 28.421875 72.90625 
L 38.28125 72.90625 
L 38.28125 8.296875 
L 54.390625 8.296875 
L 54.390625 0 
L 12.40625 0 
z
" id="DejaVuSans-49"/>
      </defs>
      <g transform="translate(208.675 266.598437)scale(0.1 -0.1)">
       <use xlink:href="#DejaVuSans-49"/>
       <use x="63.623047" xlink:href="#DejaVuSans-48"/>
       <use x="127.246094" xlink:href="#DejaVuSans-48"/>
       <use x="190.869141" xlink:href="#DejaVuSans-48"/>
      </g>
     </g>
    </g>
    <g id="xtick_6">
     <g id="line2d_6">
      <g>
       <use style="stroke:#000000;stroke-width:0.8;" x="263.25" xlink:href="#mc530ab8370" y="252"/>
      </g>
     </g>
     <g id="text_6">
      <!-- 1250 -->
      <g transform="translate(250.525 266.598437)scale(0.1 -0.1)">
       <use xlink:href="#DejaVuSans-49"/>
       <use x="63.623047" xlink:href="#DejaVuSans-50"/>
       <use x="127.246094" xlink:href="#DejaVuSans-53"/>
       <use x="190.869141" xlink:href="#DejaVuSans-48"/>
      </g>
     </g>
    </g>
    <g id="xtick_7">
     <g id="line2d_7">
      <g>
       <use style="stroke:#000000;stroke-width:0.8;" x="305.1" xlink:href="#mc530ab8370" y="252"/>
      </g>
     </g>
     <g id="text_7">
      <!-- 1500 -->
      <g transform="translate(292.375 266.598437)scale(0.1 -0.1)">
       <use xlink:href="#DejaVuSans-49"/>
       <use x="63.623047" xlink:href="#DejaVuSans-53"/>
       <use x="127.246094" xlink:href="#DejaVuSans-48"/>
       <use x="190.869141" xlink:href="#DejaVuSans-48"/>
      </g>
     </g>
    </g>
    <g id="xtick_8">
     <g id="line2d_8">
      <g>
       <use style="stroke:#000000;stroke-width:0.8;" x="346.95" xlink:href="#mc530ab8370" y="252"/>
      </g>
     </g>
     <g id="text_8">
      <!-- 1750 -->
      <g transform="translate(334.225 266.598437)scale(0.1 -0.1)">
       <use xlink:href="#DejaVuSans-49"/>
       <use x="63.623047" xlink:href="#DejaVuSans-55"/>
       <use x="127.246094" xlink:href="#DejaVuSans-53"/>
       <use x="190.869141" xlink:href="#DejaVuSans-48"/>
      </g>
     </g>
    </g>
    <g id="xtick_9">
     <g id="line2d_9">
      <g>
       <use style="stroke:#000000;stroke-width:0.8;" x="388.8" xlink:href="#mc530ab8370" y="252"/>
      </g>
     </g>
     <g id="text_9">
      <!-- 2000 -->
      <g transform="translate(376.075 266.598437)scale(0.1 -0.1)">
       <use xlink:href="#DejaVuSans-50"/>
       <use x="63.623047" xlink:href="#DejaVuSans-48"/>
       <use x="127.246094" xlink:href="#DejaVuSans-48"/>
       <use x="190.869141" xlink:href="#DejaVuSans-48"/>
      </g>
     </g>
    </g>
    <g id="text_10">
     <!-- Frekuensi (Hz) -->
     <defs>
      <path d="M 9.8125 72.90625 
L 51.703125 72.90625 
L 51.703125 64.59375 
L 19.671875 64.59375 
L 19.671875 43.109375 
L 48.578125 43.109375 
L 48.578125 34.8125 
L 19.671875 34.8125 
L 19.671875 0 
L 9.8125 0 
z
" id="DejaVuSans-70"/>
      <path d="M 41.109375 46.296875 
Q 39.59375 47.171875 37.8125 47.578125 
Q 36.03125 48 33.890625 48 
Q 26.265625 48 22.1875 43.046875 
Q 18.109375 38.09375 18.109375 28.8125 
L 18.109375 0 
L 9.078125 0 
L 9.078125 54.6875 
L 18.109375 54.6875 
L 18.109375 46.1875 
Q 20.953125 51.171875 25.484375 53.578125 
Q 30.03125 56 36.53125 56 
Q 37.453125 56 38.578125 55.875 
Q 39.703125 55.765625 41.0625 55.515625 
z
" id="DejaVuSans-114"/>
      <path d="M 56.203125 29.59375 
L 56.203125 25.203125 
L 14.890625 25.203125 
Q 15.484375 15.921875 20.484375 11.0625 
Q 25.484375 6.203125 34.421875 6.203125 
Q 39.59375 6.203125 44.453125 7.46875 
Q 49.3125 8.734375 54.109375 11.28125 
L 54.109375 2.78125 
Q 49.265625 0.734375 44.1875 -0.34375 
Q 39.109375 -1.421875 33.890625 -1.421875 
Q 20.796875 -1.421875 13.15625 6.1875 
Q 5.515625 13.8125 5.515625 26.8125 
Q 5.515625 40.234375 12.765625 48.109375 
Q 20.015625 56 32.328125 56 
Q 43.359375 56 49.78125 48.890625 
Q 56.203125 41.796875 56.203125 29.59375 
z
M 47.21875 32.234375 
Q 47.125 39.59375 43.09375 43.984375 
Q 39.0625 48.390625 32.421875 48.390625 
Q 24.90625 48.390625 20.390625 44.140625 
Q 15.875 39.890625 15.1875 32.171875 
z
" id="DejaVuSans-101"/>
      <path d="M 9.078125 75.984375 
L 18.109375 75.984375 
L 18.109375 31.109375 
L 44.921875 54.6875 
L 56.390625 54.6875 
L 27.390625 29.109375 
L 57.625 0 
L 45.90625 0 
L 18.109375 26.703125 
L 18.109375 0 
L 9.078125 0 
z
" id="DejaVuSans-107"/>
      <path d="M 8.5 21.578125 
L 8.5 54.6875 
L 17.484375 54.6875 
L 17.484375 21.921875 
Q 17.484375 14.15625 20.5 10.265625 
Q 23.53125 6.390625 29.59375 6.390625 
Q 36.859375 6.390625 41.078125 11.03125 
Q 45.3125 15.671875 45.3125 23.6875 
L 45.3125 54.6875 
L 54.296875 54.6875 
L 54.296875 0 
L 45.3125 0 
L 45.3125 8.40625 
Q 42.046875 3.421875 37.71875 1 
Q 33.40625 -1.421875 27.6875 -1.421875 
Q 18.265625 -1.421875 13.375 4.4375 
Q 8.5 10.296875 8.5 21.578125 
z
M 31.109375 56 
z
" id="DejaVuSans-117"/>
      <path d="M 54.890625 33.015625 
L 54.890625 0 
L 45.90625 0 
L 45.90625 32.71875 
Q 45.90625 40.484375 42.875 44.328125 
Q 39.84375 48.1875 33.796875 48.1875 
Q 26.515625 48.1875 22.3125 43.546875 
Q 18.109375 38.921875 18.109375 30.90625 
L 18.109375 0 
L 9.078125 0 
L 9.078125 54.6875 
L 18.109375 54.6875 
L 18.109375 46.1875 
Q 21.34375 51.125 25.703125 53.5625 
Q 30.078125 56 35.796875 56 
Q 45.21875 56 50.046875 50.171875 
Q 54.890625 44.34375 54.890625 33.015625 
z
" id="DejaVuSans-110"/>
      <path d="M 44.28125 53.078125 
L 44.28125 44.578125 
Q 40.484375 46.53125 36.375 47.5 
Q 32.28125 48.484375 27.875 48.484375 
Q 21.1875 48.484375 17.84375 46.4375 
Q 14.5 44.390625 14.5 40.28125 
Q 14.5 37.15625 16.890625 35.375 
Q 19.28125 33.59375 26.515625 31.984375 
L 29.59375 31.296875 
Q 39.15625 29.25 43.1875 25.515625 
Q 47.21875 21.78125 47.21875 15.09375 
Q 47.21875 7.46875 41.1875 3.015625 
Q 35.15625 -1.421875 24.609375 -1.421875 
Q 20.21875 -1.421875 15.453125 -0.5625 
Q 10.6875 0.296875 5.421875 2 
L 5.421875 11.28125 
Q 10.40625 8.6875 15.234375 7.390625 
Q 20.0625 6.109375 24.8125 6.109375 
Q 31.15625 6.109375 34.5625 8.28125 
Q 37.984375 10.453125 37.984375 14.40625 
Q 37.984375 18.0625 35.515625 20.015625 
Q 33.0625 21.96875 24.703125 23.78125 
L 21.578125 24.515625 
Q 13.234375 26.265625 9.515625 29.90625 
Q 5.8125 33.546875 5.8125 39.890625 
Q 5.8125 47.609375 11.28125 51.796875 
Q 16.75 56 26.8125 56 
Q 31.78125 56 36.171875 55.265625 
Q 40.578125 54.546875 44.28125 53.078125 
z
" id="DejaVuSans-115"/>
      <path d="M 9.421875 54.6875 
L 18.40625 54.6875 
L 18.40625 0 
L 9.421875 0 
z
M 9.421875 75.984375 
L 18.40625 75.984375 
L 18.40625 64.59375 
L 9.421875 64.59375 
z
" id="DejaVuSans-105"/>
      <path id="DejaVuSans-32"/>
      <path d="M 31 75.875 
Q 24.46875 64.65625 21.28125 53.65625 
Q 18.109375 42.671875 18.109375 31.390625 
Q 18.109375 20.125 21.3125 9.0625 
Q 24.515625 -2 31 -13.1875 
L 23.1875 -13.1875 
Q 15.875 -1.703125 12.234375 9.375 
Q 8.59375 20.453125 8.59375 31.390625 
Q 8.59375 42.28125 12.203125 53.3125 
Q 15.828125 64.359375 23.1875 75.875 
z
" id="DejaVuSans-40"/>
      <path d="M 9.8125 72.90625 
L 19.671875 72.90625 
L 19.671875 43.015625 
L 55.515625 43.015625 
L 55.515625 72.90625 
L 65.375 72.90625 
L 65.375 0 
L 55.515625 0 
L 55.515625 34.71875 
L 19.671875 34.71875 
L 19.671875 0 
L 9.8125 0 
z
" id="DejaVuSans-72"/>
      <path d="M 5.515625 54.6875 
L 48.1875 54.6875 
L 48.1875 46.484375 
L 14.40625 7.171875 
L 48.1875 7.171875 
L 48.1875 0 
L 4.296875 0 
L 4.296875 8.203125 
L 38.09375 47.515625 
L 5.515625 47.515625 
z
" id="DejaVuSans-122"/>
      <path d="M 8.015625 75.875 
L 15.828125 75.875 
Q 23.140625 64.359375 26.78125 53.3125 
Q 30.421875 42.28125 30.421875 31.390625 
Q 30.421875 20.453125 26.78125 9.375 
Q 23.140625 -1.703125 15.828125 -13.1875 
L 8.015625 -13.1875 
Q 14.5 -2 17.703125 9.0625 
Q 20.90625 20.125 20.90625 31.390625 
Q 20.90625 42.671875 17.703125 53.65625 
Q 14.5 64.65625 8.015625 75.875 
z
" id="DejaVuSans-41"/>
     </defs>
     <g transform="translate(185.223437 280.276563)scale(0.1 -0.1)">
      <use xlink:href="#DejaVuSans-70"/>
      <use x="57.410156" xlink:href="#DejaVuSans-114"/>
      <use x="98.492188" xlink:href="#DejaVuSans-101"/>
      <use x="160.015625" xlink:href="#DejaVuSans-107"/>
      <use x="217.878906" xlink:href="#DejaVuSans-117"/>
      <use x="281.257812" xlink:href="#DejaVuSans-101"/>
      <use x="342.78125" xlink:href="#DejaVuSans-110"/>
      <use x="406.160156" xlink:href="#DejaVuSans-115"/>
      <use x="458.259766" xlink:href="#DejaVuSans-105"/>
      <use x="486.042969" xlink:href="#DejaVuSans-32"/>
      <use x="517.830078" xlink:href="#DejaVuSans-40"/>
      <use x="556.84375" xlink:href="#DejaVuSans-72"/>
      <use x="632.039062" xlink:href="#DejaVuSans-122"/>
      <use x="684.529297" xlink:href="#DejaVuSans-41"/>
     </g>
    </g>
   </g>
   <g id="matplotlib.axis_2">
    <g id="ytick_1">
     <g id="line2d_10">
      <defs>
       <path d="M 0 0 
L -3.5 0 
" id="m0b28c9032b" style="stroke:#000000;stroke-width:0.8;"/>
      </defs>
      <g>
       <use style="stroke:#000000;stroke-width:0.8;" x="54" xlink:href="#m0b28c9032b" y="242.02612"/>
      </g>
     </g>
     <g id="text_11">
      <!-- 0 -->
      <g transform="translate(40.6375 245.825338)scale(0.1 -0.1)">
       <use xlink:href="#DejaVuSans-48"/>
      </g>
     </g>
    </g>
    <g id="ytick_2">
     <g id="line2d_11">
      <g>
       <use style="stroke:#000000;stroke-width:0.8;" x="54" xlink:href="#m0b28c9032b" y="198.676191"/>
      </g>
     </g>
     <g id="text_12">
      <!-- 500 -->
      <g transform="translate(27.9125 202.47541)scale(0.1 -0.1)">
       <use xlink:href="#DejaVuSans-53"/>
       <use x="63.623047" xlink:href="#DejaVuSans-48"/>
       <use x="127.246094" xlink:href="#DejaVuSans-48"/>
      </g>
     </g>
    </g>
    <g id="ytick_3">
     <g id="line2d_12">
      <g>
       <use style="stroke:#000000;stroke-width:0.8;" x="54" xlink:href="#m0b28c9032b" y="155.326263"/>
      </g>
     </g>
     <g id="text_13">
      <!-- 1000 -->
      <g transform="translate(21.55 159.125482)scale(0.1 -0.1)">
       <use xlink:href="#DejaVuSans-49"/>
       <use x="63.623047" xlink:href="#DejaVuSans-48"/>
       <use x="127.246094" xlink:href="#DejaVuSans-48"/>
       <use x="190.869141" xlink:href="#DejaVuSans-48"/>
      </g>
     </g>
    </g>
    <g id="ytick_4">
     <g id="line2d_13">
      <g>
       <use style="stroke:#000000;stroke-width:0.8;" x="54" xlink:href="#m0b28c9032b" y="111.976334"/>
      </g>
     </g>
     <g id="text_14">
      <!-- 1500 -->
      <g transform="translate(21.55 115.775553)scale(0.1 -0.1)">
       <use xlink:href="#DejaVuSans-49"/>
       <use x="63.623047" xlink:href="#DejaVuSans-53"/>
       <use x="127.246094" xlink:href="#DejaVuSans-48"/>
       <use x="190.869141" xlink:href="#DejaVuSans-48"/>
      </g>
     </g>
    </g>
    <g id="ytick_5">
     <g id="line2d_14">
      <g>
       <use style="stroke:#000000;stroke-width:0.8;" x="54" xlink:href="#m0b28c9032b" y="68.626406"/>
      </g>
     </g>
     <g id="text_15">
      <!-- 2000 -->
      <g transform="translate(21.55 72.425625)scale(0.1 -0.1)">
       <use xlink:href="#DejaVuSans-50"/>
       <use x="63.623047" xlink:href="#DejaVuSans-48"/>
       <use x="127.246094" xlink:href="#DejaVuSans-48"/>
       <use x="190.869141" xlink:href="#DejaVuSans-48"/>
      </g>
     </g>
    </g>
    <g id="text_16">
     <!-- Amplitudo -->
     <defs>
      <path d="M 34.1875 63.1875 
L 20.796875 26.90625 
L 47.609375 26.90625 
z
M 28.609375 72.90625 
L 39.796875 72.90625 
L 67.578125 0 
L 57.328125 0 
L 50.6875 18.703125 
L 17.828125 18.703125 
L 11.1875 0 
L 0.78125 0 
z
" id="DejaVuSans-65"/>
      <path d="M 52 44.1875 
Q 55.375 50.25 60.0625 53.125 
Q 64.75 56 71.09375 56 
Q 79.640625 56 84.28125 50.015625 
Q 88.921875 44.046875 88.921875 33.015625 
L 88.921875 0 
L 79.890625 0 
L 79.890625 32.71875 
Q 79.890625 40.578125 77.09375 44.375 
Q 74.3125 48.1875 68.609375 48.1875 
Q 61.625 48.1875 57.5625 43.546875 
Q 53.515625 38.921875 53.515625 30.90625 
L 53.515625 0 
L 44.484375 0 
L 44.484375 32.71875 
Q 44.484375 40.625 41.703125 44.40625 
Q 38.921875 48.1875 33.109375 48.1875 
Q 26.21875 48.1875 22.15625 43.53125 
Q 18.109375 38.875 18.109375 30.90625 
L 18.109375 0 
L 9.078125 0 
L 9.078125 54.6875 
L 18.109375 54.6875 
L 18.109375 46.1875 
Q 21.1875 51.21875 25.484375 53.609375 
Q 29.78125 56 35.6875 56 
Q 41.65625 56 45.828125 52.96875 
Q 50 49.953125 52 44.1875 
z
" id="DejaVuSans-109"/>
      <path d="M 18.109375 8.203125 
L 18.109375 -20.796875 
L 9.078125 -20.796875 
L 9.078125 54.6875 
L 18.109375 54.6875 
L 18.109375 46.390625 
Q 20.953125 51.265625 25.265625 53.625 
Q 29.59375 56 35.59375 56 
Q 45.5625 56 51.78125 48.09375 
Q 58.015625 40.1875 58.015625 27.296875 
Q 58.015625 14.40625 51.78125 6.484375 
Q 45.5625 -1.421875 35.59375 -1.421875 
Q 29.59375 -1.421875 25.265625 0.953125 
Q 20.953125 3.328125 18.109375 8.203125 
z
M 48.6875 27.296875 
Q 48.6875 37.203125 44.609375 42.84375 
Q 40.53125 48.484375 33.40625 48.484375 
Q 26.265625 48.484375 22.1875 42.84375 
Q 18.109375 37.203125 18.109375 27.296875 
Q 18.109375 17.390625 22.1875 11.75 
Q 26.265625 6.109375 33.40625 6.109375 
Q 40.53125 6.109375 44.609375 11.75 
Q 48.6875 17.390625 48.6875 27.296875 
z
" id="DejaVuSans-112"/>
      <path d="M 9.421875 75.984375 
L 18.40625 75.984375 
L 18.40625 0 
L 9.421875 0 
z
" id="DejaVuSans-108"/>
      <path d="M 18.3125 70.21875 
L 18.3125 54.6875 
L 36.8125 54.6875 
L 36.8125 47.703125 
L 18.3125 47.703125 
L 18.3125 18.015625 
Q 18.3125 11.328125 20.140625 9.421875 
Q 21.96875 7.515625 27.59375 7.515625 
L 36.8125 7.515625 
L 36.8125 0 
L 27.59375 0 
Q 17.1875 0 13.234375 3.875 
Q 9.28125 7.765625 9.28125 18.015625 
L 9.28125 47.703125 
L 2.6875 47.703125 
L 2.6875 54.6875 
L 9.28125 54.6875 
L 9.28125 70.21875 
z
" id="DejaVuSans-116"/>
      <path d="M 45.40625 46.390625 
L 45.40625 75.984375 
L 54.390625 75.984375 
L 54.390625 0 
L 45.40625 0 
L 45.40625 8.203125 
Q 42.578125 3.328125 38.25 0.953125 
Q 33.9375 -1.421875 27.875 -1.421875 
Q 17.96875 -1.421875 11.734375 6.484375 
Q 5.515625 14.40625 5.515625 27.296875 
Q 5.515625 40.1875 11.734375 48.09375 
Q 17.96875 56 27.875 56 
Q 33.9375 56 38.25 53.625 
Q 42.578125 51.265625 45.40625 46.390625 
z
M 14.796875 27.296875 
Q 14.796875 17.390625 18.875 11.75 
Q 22.953125 6.109375 30.078125 6.109375 
Q 37.203125 6.109375 41.296875 11.75 
Q 45.40625 17.390625 45.40625 27.296875 
Q 45.40625 37.203125 41.296875 42.84375 
Q 37.203125 48.484375 30.078125 48.484375 
Q 22.953125 48.484375 18.875 42.84375 
Q 14.796875 37.203125 14.796875 27.296875 
z
" id="DejaVuSans-100"/>
      <path d="M 30.609375 48.390625 
Q 23.390625 48.390625 19.1875 42.75 
Q 14.984375 37.109375 14.984375 27.296875 
Q 14.984375 17.484375 19.15625 11.84375 
Q 23.34375 6.203125 30.609375 6.203125 
Q 37.796875 6.203125 41.984375 11.859375 
Q 46.1875 17.53125 46.1875 27.296875 
Q 46.1875 37.015625 41.984375 42.703125 
Q 37.796875 48.390625 30.609375 48.390625 
z
M 30.609375 56 
Q 42.328125 56 49.015625 48.375 
Q 55.71875 40.765625 55.71875 27.296875 
Q 55.71875 13.875 49.015625 6.21875 
Q 42.328125 -1.421875 30.609375 -1.421875 
Q 18.84375 -1.421875 12.171875 6.21875 
Q 5.515625 13.875 5.515625 27.296875 
Q 5.515625 40.765625 12.171875 48.375 
Q 18.84375 56 30.609375 56 
z
" id="DejaVuSans-111"/>
     </defs>
     <g transform="translate(15.470312 168.885469)rotate(-90)scale(0.1 -0.1)">
      <use xlink:href="#DejaVuSans-65"/>
      <use x="68.408203" xlink:href="#DejaVuSans-109"/>
      <use x="165.820312" xlink:href="#DejaVuSans-112"/>
      <use x="229.296875" xlink:href="#DejaVuSans-108"/>
      <use x="257.080078" xlink:href="#DejaVuSans-105"/>
      <use x="284.863281" xlink:href="#DejaVuSans-116"/>
      <use x="324.072266" xlink:href="#DejaVuSans-117"/>
      <use x="387.451172" xlink:href="#DejaVuSans-100"/>
      <use x="450.927734" xlink:href="#DejaVuSans-111"/>
     </g>
    </g>
   </g>
   <g id="line2d_15">
    <path clip-path="url(#p83f337afdb)" d="M 54 242.026131 
L 54.050478 241.942964 
L 54.032664 242.116364 
L 54.081656 242.027737 
" style="fill:none;stroke:#1f77b4;stroke-linecap:square;stroke-width:1.5;"/>
   </g>
   <g id="line2d_16">
    <path clip-path="url(#p83f337afdb)" d="M 53.754785 241.976212 
L 54.245215 241.976212 
L 56.452148 241.907882 
L 57.187793 241.688016 
L 57.678223 241.899638 
L 58.168652 242.002812 
L 58.659082 241.793375 
L 58.904297 241.974396 
L 59.149512 241.804563 
L 59.639941 241.932114 
L 61.11123 241.933173 
L 61.60166 241.947768 
L 62.337305 241.76767 
L 63.072949 241.958416 
L 64.299023 241.793203 
L 64.544238 241.829018 
L 64.789453 241.724007 
L 65.279883 241.970476 
L 65.525098 241.887263 
L 65.770313 241.681174 
L 66.015527 241.739579 
L 66.260742 241.918637 
L 66.505957 241.70767 
L 67.241602 241.851786 
L 67.486816 241.704792 
L 67.732031 241.866187 
L 68.712891 241.856287 
L 68.958105 241.554535 
L 69.448535 241.909762 
L 69.69375 241.635452 
L 70.18418 241.762662 
L 70.429395 241.848857 
L 70.919824 241.463807 
L 71.165039 241.879607 
L 71.410254 241.764472 
L 71.900684 241.851161 
L 72.145898 241.870627 
L 72.636328 241.621003 
L 72.881543 241.582307 
L 73.126758 241.963093 
L 73.371973 241.660304 
L 73.617188 241.620487 
L 73.862402 241.793071 
L 74.352832 241.437163 
L 74.843262 241.081007 
L 75.333691 241.726274 
L 75.578906 241.428519 
L 75.824121 241.688903 
L 76.314551 241.637021 
L 76.559766 241.897497 
L 77.29541 241.645001 
L 77.78584 241.955583 
L 78.031055 241.687999 
L 78.521484 241.953251 
L 78.766699 241.588087 
L 79.011914 241.512075 
L 79.502344 241.910194 
L 79.992773 241.609955 
L 80.483203 241.742859 
L 81.218848 241.32351 
L 81.464063 241.333538 
L 81.709277 241.614851 
L 82.199707 241.322808 
L 82.444922 241.476477 
L 82.690137 241.767161 
L 82.935352 241.604973 
L 83.425781 241.792446 
L 83.916211 241.023369 
L 84.161426 240.902001 
L 84.406641 241.24316 
L 84.651855 241.350501 
L 84.89707 240.806009 
L 85.142285 240.819487 
L 85.3875 241.209125 
L 85.632715 241.102781 
L 85.87793 241.126669 
L 86.123145 241.542314 
L 86.368359 241.644653 
L 87.839648 238.927946 
L 88.084863 239.221499 
L 88.575293 239.183708 
L 88.820508 239.581298 
L 89.065723 240.362221 
L 89.556152 240.085968 
L 89.801367 240.456894 
L 90.046582 238.496893 
L 90.291797 237.773659 
L 90.537012 237.84658 
L 91.027441 235.500607 
L 91.272656 237.021973 
L 91.517871 237.177774 
L 92.49873 219.444722 
L 92.743945 208.425012 
L 93.234375 167.815183 
L 94.215234 51.394369 
L 94.460449 44.443636 
L 94.705664 64.185166 
L 95.196094 159.10221 
L 95.441309 215.135412 
L 95.686523 212.708146 
L 96.176953 135.75256 
L 96.422168 136.373035 
L 96.667383 167.21935 
L 96.912598 213.936364 
L 97.157813 213.495735 
L 97.648242 160.608269 
L 97.893457 158.806266 
L 98.383887 197.231484 
L 98.874316 154.411988 
L 99.119531 155.162138 
L 99.364746 174.804149 
L 99.609961 180.125455 
L 99.855176 165.965039 
L 100.100391 166.522053 
L 100.59082 201.670085 
L 100.836035 195.533745 
L 101.08125 197.730598 
L 101.57168 226.680648 
L 101.816895 223.393672 
L 102.062109 222.527997 
L 102.552539 237.615756 
L 102.797754 232.838936 
L 103.042969 232.224439 
L 103.533398 241.567716 
L 103.778613 237.002812 
L 104.023828 235.603871 
L 104.269043 237.461603 
L 104.514258 241.390367 
L 104.759473 238.367791 
L 105.004688 237.470281 
L 105.495117 241.784745 
L 105.740332 239.249038 
L 105.985547 238.695687 
L 106.230762 240.660995 
L 106.475977 240.630009 
L 106.721191 240.362233 
L 107.211621 241.023421 
L 107.456836 241.225167 
L 107.702051 241.132551 
L 108.19248 241.195762 
L 108.437695 241.597046 
L 108.928125 240.690292 
L 109.418555 241.498765 
L 110.154199 241.627801 
L 110.399414 241.559773 
L 110.644629 241.756304 
L 111.135059 241.404016 
L 111.380273 241.420542 
L 111.870703 241.895962 
L 112.115918 241.71216 
L 112.361133 241.833722 
L 112.851562 241.373332 
L 113.096777 241.752579 
L 113.587207 241.341714 
L 113.832422 241.97964 
L 114.077637 241.244144 
L 114.322852 241.087456 
L 114.568066 241.579166 
L 114.813281 241.568645 
L 115.058496 241.029792 
L 115.303711 241.293118 
L 115.548926 241.954944 
L 115.794141 241.528515 
L 116.039355 241.660442 
L 116.28457 241.919629 
L 116.529785 241.905747 
L 117.020215 241.709651 
L 117.26543 241.253219 
L 117.510645 241.097892 
L 117.755859 241.627036 
L 118.246289 241.410097 
L 118.491504 241.492824 
L 118.736719 241.302361 
L 118.981934 241.367057 
L 119.227148 241.139801 
L 119.472363 241.342275 
L 119.717578 241.236623 
L 119.962793 241.635555 
L 120.208008 241.80045 
L 120.698438 241.337432 
L 120.943652 241.780523 
L 121.434082 241.031691 
L 121.679297 241.555128 
L 121.924512 241.66347 
L 122.169727 241.411869 
L 122.660156 241.432938 
L 122.905371 241.588616 
L 123.395801 241.307674 
L 124.131445 241.851395 
L 124.37666 241.353441 
L 124.621875 241.434123 
L 124.86709 241.761023 
L 125.112305 241.724447 
L 125.35752 241.88387 
L 125.602734 241.569843 
L 125.847949 241.868313 
L 126.093164 241.326419 
L 126.583594 241.709214 
L 126.828809 241.716131 
L 127.074023 241.331263 
L 127.319238 241.470258 
L 127.564453 240.956457 
L 128.054883 241.62603 
L 128.300098 241.172611 
L 128.545313 241.491218 
L 128.790527 241.184974 
L 129.035742 241.726389 
L 129.280957 241.889012 
L 129.526172 241.537757 
L 130.016602 241.432392 
L 130.261816 241.058368 
L 130.752246 241.762852 
L 131.733105 241.953678 
L 131.97832 241.13541 
L 133.940039 225.479367 
L 134.185254 224.934376 
L 134.675684 223.490339 
L 134.920898 224.973841 
L 135.411328 232.137289 
L 135.656543 236.341159 
L 135.901758 237.168687 
L 136.637402 226.559118 
L 136.882617 227.187015 
L 137.373047 234.582045 
L 137.618262 238.857025 
L 137.863477 236.567824 
L 138.353906 229.411948 
L 138.599121 229.469079 
L 139.089551 238.152947 
L 139.334766 238.791055 
L 139.825195 232.905682 
L 140.07041 232.288046 
L 140.315625 232.876398 
L 140.56084 234.536835 
L 140.806055 235.154176 
L 141.296484 231.173368 
L 141.541699 231.49911 
L 142.032129 238.223737 
L 142.277344 237.940709 
L 142.767773 233.134773 
L 143.012988 233.537745 
L 143.258203 235.417396 
L 143.503418 234.532802 
L 143.748633 230.905025 
L 143.993848 229.337829 
L 144.484277 233.79843 
L 144.729492 233.44083 
L 144.974707 232.707559 
L 145.219922 234.436697 
L 145.465137 237.818822 
L 145.710352 238.166044 
L 145.955566 236.671672 
L 146.200781 236.876277 
L 146.445996 239.538781 
L 146.691211 240.190371 
L 146.936426 238.35672 
L 147.181641 237.562693 
L 147.426855 239.469155 
L 147.67207 240.2941 
L 147.917285 239.00647 
L 148.1625 238.386804 
L 148.407715 239.231954 
L 148.65293 240.738501 
L 148.898145 238.986915 
L 149.143359 238.603976 
L 149.388574 239.416265 
L 149.633789 241.099529 
L 149.879004 238.870613 
L 150.124219 238.904014 
L 150.369434 240.597152 
L 150.614648 241.491489 
L 150.859863 240.227111 
L 151.105078 240.627531 
L 151.350293 241.485984 
L 151.595508 239.911558 
L 151.840723 240.22928 
L 152.085938 240.829387 
L 152.331152 240.296462 
L 152.576367 240.379249 
L 152.821582 241.305456 
L 153.066797 239.780814 
L 153.312012 239.425407 
L 153.557227 241.267579 
L 154.047656 240.205538 
L 154.292871 240.783576 
L 154.538086 241.074172 
L 154.783301 240.72463 
L 155.028516 240.915552 
L 155.518945 240.304182 
L 156.009375 239.811149 
L 156.25459 239.899603 
L 156.74502 241.341672 
L 156.990234 241.589248 
L 157.235449 241.200651 
L 157.480664 241.207322 
L 157.725879 241.347586 
L 157.971094 240.854948 
L 158.461523 241.650913 
L 158.706738 240.444434 
L 158.951953 240.754305 
L 159.197168 241.59361 
L 159.442383 241.008663 
L 159.687598 239.522197 
L 159.932813 240.756755 
L 160.178027 241.067438 
L 160.423242 240.5528 
L 160.913672 241.303417 
L 161.158887 240.88699 
L 161.404102 241.781645 
L 161.894531 239.465757 
L 162.139746 240.032473 
L 162.384961 241.202861 
L 162.630176 240.906497 
L 162.875391 241.250899 
L 163.120605 241.065643 
L 163.36582 239.693699 
L 163.611035 239.928604 
L 163.85625 240.96342 
L 164.34668 240.060571 
L 164.591895 240.502457 
L 164.837109 241.628213 
L 165.327539 240.846651 
L 165.572754 241.239868 
L 165.817969 241.369734 
L 166.063184 241.089992 
L 166.308398 241.380621 
L 166.553613 241.395754 
L 166.798828 241.058966 
L 167.044043 241.692215 
L 167.289258 241.70585 
L 167.534473 241.036472 
L 167.779688 241.152873 
L 168.024902 241.709042 
L 168.270117 241.162231 
L 168.515332 241.426686 
L 168.760547 241.880119 
L 169.005762 241.672752 
L 169.250977 241.790958 
L 169.741406 240.346395 
L 169.986621 240.510746 
L 170.231836 240.884412 
L 170.477051 240.933674 
L 170.722266 240.463661 
L 170.96748 238.64436 
L 171.212695 237.90678 
L 171.45791 237.681866 
L 171.94834 235.677895 
L 172.43877 233.207978 
L 172.683984 231.965195 
L 173.174414 227.191906 
L 173.419629 226.823332 
L 173.664844 226.861488 
L 173.910059 227.079923 
L 174.400488 228.845174 
L 174.890918 232.760284 
L 175.136133 235.052862 
L 175.626563 241.432739 
L 176.362207 230.519761 
L 176.607422 228.962841 
L 176.852637 228.651874 
L 177.343066 234.590963 
L 177.588281 237.509755 
L 177.833496 238.403342 
L 178.569141 226.426696 
L 178.814355 226.695067 
L 179.304785 234.338856 
L 179.55 239.211035 
L 180.285645 228.102798 
L 180.530859 228.829607 
L 181.021289 238.115396 
L 181.266504 238.612397 
L 181.756934 229.164923 
L 182.002148 228.403214 
L 182.247363 230.486663 
L 182.737793 240.25409 
L 183.228223 229.328485 
L 183.473438 228.752263 
L 183.718652 231.930587 
L 183.963867 237.90618 
L 184.209082 238.963544 
L 184.699512 229.693722 
L 184.944727 229.713707 
L 185.435156 237.989563 
L 185.925586 230.499464 
L 186.170801 229.863393 
L 186.416016 232.513702 
L 186.66123 236.773889 
L 186.906445 236.799947 
L 187.15166 232.621743 
L 187.396875 230.636615 
L 187.64209 231.870349 
L 187.887305 234.972396 
L 188.13252 236.27889 
L 188.622949 229.92513 
L 188.868164 230.464128 
L 189.358594 234.854039 
L 189.603809 234.919346 
L 190.094238 235.667344 
L 190.584668 234.173292 
L 190.829883 234.425289 
L 191.075098 235.175187 
L 191.320313 235.167355 
L 191.810742 233.616467 
L 192.055957 233.337262 
L 192.301172 234.308176 
L 192.546387 236.012255 
L 192.791602 236.008222 
L 193.036816 234.703387 
L 193.282031 234.659864 
L 194.017676 237.855395 
L 194.262891 237.422972 
L 194.508105 237.246357 
L 194.75332 237.736725 
L 194.998535 238.934397 
L 195.24375 239.563607 
L 195.488965 239.751968 
L 195.979395 239.127554 
L 196.224609 239.433117 
L 196.715039 240.882271 
L 197.450684 240.452771 
L 197.941113 241.814892 
L 198.676758 240.861094 
L 198.921973 241.146406 
L 199.167188 241.783195 
L 199.412402 241.216819 
L 199.902832 241.97434 
L 200.393262 241.145851 
L 200.883691 241.869604 
L 201.374121 240.798295 
L 201.619336 240.935296 
L 201.864551 240.664984 
L 202.109766 240.990146 
L 202.84541 241.029258 
L 203.090625 240.536153 
L 203.33584 240.898612 
L 203.82627 239.813969 
L 204.071484 240.038066 
L 204.316699 240.584405 
L 204.561914 241.639536 
L 204.807129 240.310769 
L 205.052344 239.986617 
L 205.542773 241.564688 
L 205.787988 241.874168 
L 206.033203 241.564833 
L 206.278418 240.91602 
L 206.523633 240.831364 
L 206.768848 241.383783 
L 207.014063 241.299429 
L 207.504492 241.741574 
L 207.994922 240.378309 
L 208.240137 240.837552 
L 208.485352 241.568398 
L 208.975781 239.443645 
L 209.220996 239.061863 
L 209.466211 240.006503 
L 209.711426 241.77126 
L 209.956641 240.047895 
L 210.201855 239.299932 
L 210.44707 239.705179 
L 210.9375 241.299994 
L 211.673145 238.441154 
L 211.918359 238.466695 
L 212.408789 237.313822 
L 213.389648 233.731321 
L 213.634863 233.579543 
L 214.125293 234.331522 
L 214.370508 234.524651 
L 214.615723 234.962961 
L 214.860938 236.038576 
L 215.351367 238.869604 
L 215.596582 240.052133 
L 215.841797 239.887992 
L 216.332227 236.182503 
L 216.577441 235.12828 
L 217.313086 235.282999 
L 218.04873 239.357572 
L 218.784375 236.273266 
L 219.02959 236.103348 
L 219.765234 240.336967 
L 220.010449 240.563908 
L 220.500879 238.830798 
L 220.746094 238.033108 
L 220.991309 238.003952 
L 221.726953 241.259383 
L 222.217383 238.217691 
L 222.462598 237.65779 
L 222.707813 237.683584 
L 223.198242 240.750886 
L 224.179102 237.141329 
L 224.424316 237.559494 
L 224.914746 241.811118 
L 225.159961 239.466 
L 225.405176 238.458654 
L 225.895605 239.002794 
L 226.14082 239.611148 
L 226.386035 241.250828 
L 226.63125 240.555532 
L 226.876465 238.876001 
L 227.12168 238.267541 
L 227.366895 239.260076 
L 227.612109 241.178277 
L 227.857324 240.865916 
L 228.102539 239.283262 
L 228.347754 238.8226 
L 228.838184 239.760883 
L 229.328613 241.578231 
L 229.819043 238.101457 
L 230.064258 238.264378 
L 230.309473 240.286999 
L 230.554688 240.684026 
L 230.799902 239.035064 
L 231.045117 239.039707 
L 231.535547 241.343246 
L 231.780762 241.715834 
L 232.025977 241.401333 
L 232.516406 239.470225 
L 233.006836 239.589434 
L 233.497266 238.302027 
L 233.74248 239.244686 
L 233.987695 240.93846 
L 234.23291 240.999081 
L 234.478125 240.577983 
L 234.968555 239.055415 
L 235.21377 239.223002 
L 235.458984 239.868497 
L 235.949414 238.119738 
L 236.194629 238.131288 
L 236.685059 239.097141 
L 237.175488 239.40316 
L 237.420703 239.656865 
L 237.665918 239.69766 
L 237.911133 239.543056 
L 238.156348 239.902316 
L 238.401563 240.827193 
L 238.646777 240.756397 
L 239.137207 240.2078 
L 239.382422 240.285345 
L 239.872852 240.234816 
L 240.118066 240.517992 
L 240.363281 241.206636 
L 240.608496 241.159017 
L 240.853711 240.643206 
L 241.098926 240.465024 
L 241.344141 240.53627 
L 241.589355 241.155272 
L 241.83457 241.355978 
L 242.079785 241.207949 
L 242.325 240.889933 
L 242.81543 241.436353 
L 243.060645 241.20399 
L 243.796289 241.745273 
L 244.041504 241.622817 
L 244.286719 241.137829 
L 245.022363 241.390156 
L 245.267578 241.871655 
L 245.512793 241.248787 
L 245.758008 241.459803 
L 246.003223 241.953292 
L 246.248438 241.283184 
L 246.493652 241.04775 
L 246.738867 241.124194 
L 246.984082 241.363108 
L 247.229297 241.254934 
L 247.474512 240.842014 
L 247.719727 241.251142 
L 248.210156 240.617191 
L 248.455371 240.98446 
L 248.700586 241.957379 
L 248.945801 240.994311 
L 249.191016 240.87254 
L 249.43623 241.374653 
L 249.681445 240.845336 
L 249.92666 240.842082 
L 250.171875 240.96934 
L 250.662305 240.465144 
L 250.90752 240.146085 
L 251.397949 240.429541 
L 251.888379 238.797645 
L 252.378809 238.245025 
L 252.624023 237.823555 
L 252.869238 236.697199 
L 253.114453 236.218053 
L 253.359668 236.932172 
L 253.604883 236.981613 
L 253.850098 236.184679 
L 254.095313 235.8779 
L 254.340527 235.827207 
L 255.321387 237.6491 
L 255.566602 238.473798 
L 255.811816 237.979623 
L 256.057031 237.984193 
L 256.302246 238.367098 
L 256.792676 237.749424 
L 257.283105 237.860831 
L 257.52832 237.43416 
L 257.773535 237.754245 
L 258.01875 238.826108 
L 258.263965 238.694078 
L 258.754395 237.617238 
L 258.999609 237.786799 
L 259.244824 238.129536 
L 259.490039 237.75186 
L 259.735254 237.617506 
L 260.225684 238.207165 
L 260.470898 238.252513 
L 260.716113 238.092277 
L 260.961328 238.238128 
L 261.206543 237.98898 
L 261.451758 238.323152 
L 261.696973 239.297343 
L 261.942188 239.602785 
L 262.187402 239.726274 
L 262.432617 239.64885 
L 262.677832 239.348633 
L 262.923047 238.844196 
L 263.413477 240.738941 
L 263.658691 239.635837 
L 263.903906 239.884646 
L 264.149121 240.327702 
L 264.394336 239.624738 
L 264.639551 239.494306 
L 265.12998 240.964865 
L 265.375195 240.509244 
L 265.62041 240.329445 
L 265.865625 240.601756 
L 266.11084 240.477223 
L 266.356055 240.623721 
L 266.60127 241.132547 
L 266.846484 240.949168 
L 267.091699 240.263099 
L 267.336914 239.999719 
L 267.827344 241.512017 
L 268.072559 240.864151 
L 268.317773 241.068225 
L 268.562988 241.795221 
L 268.808203 240.954149 
L 269.053418 240.569426 
L 269.298633 241.044741 
L 269.543848 241.119274 
L 269.789062 240.77048 
L 270.034277 241.263732 
L 270.279492 240.970238 
L 270.524707 240.993687 
L 270.769922 240.864109 
L 271.015137 241.677639 
L 271.260352 240.778274 
L 271.505566 240.409801 
L 271.995996 241.572636 
L 272.241211 241.439375 
L 272.731641 241.803521 
L 272.976855 240.999397 
L 273.22207 241.285068 
L 273.7125 241.054012 
L 273.957715 241.39801 
L 274.20293 241.200639 
L 274.693359 241.80962 
L 274.938574 241.494563 
L 275.183789 240.665534 
L 275.429004 240.762108 
L 275.674219 241.419709 
L 275.919434 241.241269 
L 276.164648 241.687842 
L 276.409863 240.687328 
L 276.655078 240.172854 
L 276.900293 240.632523 
L 277.145508 241.855381 
L 277.390723 240.296955 
L 277.635938 240.041982 
L 277.881152 241.451418 
L 278.126367 241.233738 
L 278.371582 240.777454 
L 278.616797 241.431242 
L 279.107227 240.789735 
L 279.352441 240.909303 
L 279.597656 240.797076 
L 279.842871 241.119368 
L 280.088086 241.041526 
L 280.333301 240.807149 
L 280.578516 240.727471 
L 280.82373 240.875778 
L 281.068945 241.216781 
L 281.31416 241.927998 
L 281.559375 241.645781 
L 281.80459 241.822485 
L 282.29502 240.686842 
L 282.540234 240.889817 
L 282.785449 241.712807 
L 283.275879 241.21975 
L 283.766309 241.487301 
L 284.256738 241.38088 
L 284.747168 240.33021 
L 284.992383 240.710868 
L 285.237598 240.420818 
L 285.482813 239.770491 
L 285.728027 239.927105 
L 285.973242 240.585562 
L 286.463672 240.20002 
L 286.708887 240.67521 
L 286.954102 240.814576 
L 287.689746 240.565944 
L 287.934961 240.851109 
L 288.180176 240.861115 
L 288.425391 240.732417 
L 288.91582 241.743362 
L 289.161035 241.53099 
L 289.40625 241.066673 
L 289.651465 240.960113 
L 289.89668 241.190973 
L 290.141895 241.743101 
L 290.387109 240.885281 
L 290.632324 240.642416 
L 291.122754 241.585287 
L 291.613184 240.826792 
L 291.858398 241.253921 
L 292.103613 241.238466 
L 292.348828 240.78809 
L 292.594043 240.69386 
L 293.084473 239.709446 
L 293.329688 239.867702 
L 293.820117 239.145462 
L 294.065332 239.603189 
L 294.310547 240.373086 
L 294.555762 240.599272 
L 295.046191 240.314034 
L 295.536621 240.612459 
L 295.781836 241.447884 
L 296.027051 241.545943 
L 296.51748 240.556899 
L 296.762695 240.012602 
L 297.49834 240.717269 
L 297.98877 241.510525 
L 298.233984 241.699052 
L 298.479199 241.60891 
L 299.214844 240.645515 
L 299.460059 240.944825 
L 299.705273 240.959689 
L 300.195703 240.56023 
L 300.686133 241.432956 
L 300.931348 240.492515 
L 301.176563 240.783731 
L 301.421777 240.386015 
L 301.666992 239.43342 
L 301.912207 239.519928 
L 302.402637 241.354869 
L 302.647852 240.755734 
L 302.893066 240.765355 
L 303.138281 240.498487 
L 303.628711 240.456258 
L 303.873926 240.700697 
L 304.119141 241.799322 
L 304.364355 241.070832 
L 304.60957 241.205221 
L 304.854785 240.625917 
L 305.1 240.524962 
L 305.345215 241.320284 
L 305.59043 241.603161 
L 305.835645 241.501577 
L 306.080859 241.05681 
L 306.326074 241.175582 
L 306.571289 240.832367 
L 306.816504 240.822018 
L 307.061719 241.399134 
L 307.306934 241.347799 
L 307.552148 241.612647 
L 307.797363 241.710944 
L 308.042578 241.580719 
L 308.287793 240.362771 
L 308.533008 240.245496 
L 309.023438 241.70652 
L 309.513867 240.869395 
L 309.759082 241.588253 
L 310.249512 240.541222 
L 310.494727 240.709228 
L 310.985156 241.88307 
L 311.230371 241.756229 
L 311.475586 240.934046 
L 311.720801 240.834655 
L 311.966016 241.658551 
L 312.21123 241.430325 
L 312.456445 241.467252 
L 312.946875 240.353178 
L 313.19209 240.485688 
L 313.437305 241.014521 
L 313.927734 240.628216 
L 314.172949 241.393979 
L 314.418164 241.515493 
L 314.663379 240.754288 
L 314.908594 240.672965 
L 315.399023 241.211056 
L 315.644238 240.042346 
L 315.889453 239.889845 
L 316.134668 241.1807 
L 316.379883 241.70733 
L 316.625098 241.402671 
L 317.115527 241.561573 
L 317.605957 240.537754 
L 317.851172 240.389532 
L 318.341602 241.371403 
L 318.586816 241.051508 
L 318.832031 240.155004 
L 319.322461 240.711892 
L 319.567676 241.12982 
L 319.812891 241.27544 
L 320.058105 241.591797 
L 320.30332 241.722217 
L 320.79375 239.346604 
L 321.038965 239.786876 
L 321.529395 241.611177 
L 321.774609 239.676559 
L 322.019824 239.441274 
L 322.265039 240.488372 
L 322.755469 241.567882 
L 323.491113 239.375932 
L 323.981543 240.853992 
L 324.471973 240.080079 
L 324.717188 241.01779 
L 324.962402 241.505477 
L 325.207617 241.337077 
L 325.698047 240.794784 
L 325.943262 241.081233 
L 326.188477 240.842377 
L 326.433691 241.223615 
L 326.924121 240.774571 
L 327.169336 241.394452 
L 327.659766 241.074559 
L 327.90498 239.953555 
L 328.150195 239.653765 
L 328.39541 240.425431 
L 328.640625 240.400947 
L 328.88584 238.983782 
L 329.131055 238.42353 
L 329.621484 240.592285 
L 329.866699 240.289435 
L 330.111914 239.384933 
L 330.357129 239.305615 
L 330.602344 240.572588 
L 330.847559 240.505425 
L 331.092773 239.749564 
L 331.337988 240.023598 
L 331.583203 240.507065 
L 331.828418 241.40355 
L 332.073633 241.553359 
L 332.318848 240.229065 
L 332.564063 240.08475 
L 332.809277 241.435905 
L 333.299707 240.473164 
L 333.544922 240.465276 
L 333.790137 239.771003 
L 334.035352 240.221555 
L 334.280566 240.194016 
L 334.525781 239.576967 
L 334.770996 239.729009 
L 335.261426 239.150553 
L 335.506641 239.308588 
L 335.99707 240.864439 
L 336.242285 239.5205 
L 336.4875 239.768627 
L 336.732715 241.479722 
L 336.97793 241.092597 
L 337.468359 239.033832 
L 337.958789 240.94109 
L 338.204004 238.602356 
L 338.449219 238.608371 
L 338.694434 239.702394 
L 338.939648 240.114851 
L 339.184863 239.862947 
L 339.430078 238.241304 
L 339.920508 240.278342 
L 340.410938 238.769554 
L 340.656152 238.461568 
L 340.901367 239.605031 
L 341.146582 240.120849 
L 341.637012 239.436649 
L 341.882227 238.544511 
L 342.127441 239.107725 
L 342.372656 239.064785 
L 342.617871 238.433549 
L 342.863086 238.533957 
L 343.108301 238.941337 
L 343.353516 239.824765 
L 343.843945 238.398237 
L 344.334375 238.704363 
L 344.57959 239.296803 
L 344.824805 239.336677 
L 345.315234 240.025876 
L 345.805664 238.343717 
L 346.050879 238.57131 
L 346.296094 239.445328 
L 346.541309 238.891578 
L 347.031738 239.551678 
L 347.276953 239.32539 
L 347.522168 238.580371 
L 347.767383 238.259178 
L 348.012598 239.517027 
L 348.257813 239.984303 
L 348.503027 239.790502 
L 348.993457 239.093686 
L 349.238672 239.427554 
L 349.729102 239.613691 
L 349.974316 239.493448 
L 350.219531 239.600851 
L 350.464746 240.369125 
L 350.709961 239.981941 
L 350.955176 239.083751 
L 351.200391 239.577361 
L 351.445605 241.203555 
L 351.936035 239.43918 
L 352.18125 239.48248 
L 352.426465 240.333283 
L 352.67168 240.576484 
L 352.916895 239.84191 
L 353.162109 240.078418 
L 353.407324 240.832285 
L 353.652539 240.279282 
L 353.897754 239.212453 
L 354.142969 239.412781 
L 354.388184 240.572061 
L 354.878613 239.21785 
L 355.123828 239.48789 
L 355.369043 240.480716 
L 355.614258 239.846358 
L 355.859473 239.842422 
L 356.104688 240.864119 
L 356.349902 240.806607 
L 356.595117 240.381211 
L 356.840332 240.525483 
L 357.085547 241.339888 
L 357.330762 241.351485 
L 357.575977 240.790387 
L 357.821191 240.526582 
L 358.066406 241.317979 
L 358.311621 241.377813 
L 358.556836 241.26929 
L 359.047266 241.873908 
L 359.537695 241.434915 
L 359.78291 241.239837 
L 360.028125 241.525432 
L 360.27334 241.567779 
L 360.518555 241.36201 
L 360.76377 241.786181 
L 361.008984 241.868221 
L 361.744629 240.629146 
L 361.989844 240.875847 
L 362.235059 240.328898 
L 362.725488 240.994514 
L 362.970703 240.651129 
L 363.215918 241.252915 
L 363.461133 241.11131 
L 363.706348 240.704308 
L 363.951563 241.456733 
L 364.196777 241.652601 
L 364.441992 240.825045 
L 364.687207 240.478191 
L 364.932422 241.206695 
L 365.177637 241.470488 
L 365.422852 241.108387 
L 365.668066 241.083148 
L 366.158496 241.53493 
L 366.648926 241.200399 
L 367.139355 241.346024 
L 367.38457 241.246618 
L 367.629785 240.936862 
L 368.120215 241.26607 
L 368.610645 240.7936 
L 369.101074 241.622211 
L 369.346289 241.08372 
L 369.591504 241.039008 
L 369.836719 241.739397 
L 370.081934 241.672542 
L 370.572363 241.331108 
L 370.817578 241.852317 
L 371.308008 240.538976 
L 371.553223 240.626243 
L 372.043652 241.775052 
L 372.288867 241.128131 
L 372.534082 239.488125 
L 372.779297 239.146097 
L 373.269727 241.006359 
L 373.514941 240.573701 
L 374.005371 239.485762 
L 374.250586 239.663056 
L 374.495801 240.536696 
L 374.741016 240.687866 
L 374.98623 239.683044 
L 375.231445 239.48469 
L 375.721875 241.921878 
L 376.212305 240.074691 
L 376.45752 239.834131 
L 376.947949 241.118017 
L 377.438379 238.684348 
L 377.683594 238.46835 
L 377.928809 239.458873 
L 378.174023 241.786425 
L 378.419238 239.85069 
L 378.664453 238.995136 
L 378.909668 239.157574 
L 379.154883 239.848823 
L 379.400098 241.464018 
L 379.645313 240.382547 
L 379.890527 238.705032 
L 380.135742 237.914508 
L 380.380957 238.384018 
L 380.626172 240.57637 
L 380.871387 240.366658 
L 381.116602 238.1907 
L 381.361816 237.829061 
L 381.607031 239.247052 
L 381.852246 241.824938 
L 382.342676 238.308014 
L 382.587891 238.274902 
L 382.833105 239.374705 
L 383.07832 241.253988 
L 383.56875 240.005884 
L 383.813965 239.915148 
L 384.05918 240.429177 
L 384.304395 241.860689 
L 384.549609 241.015918 
L 384.794824 241.013019 
L 385.040039 241.426163 
L 385.285254 241.309005 
L 385.530469 241.032962 
L 386.266113 241.727055 
L 386.756543 240.924252 
L 387.246973 241.80459 
L 387.492188 241.896526 
L 387.737402 241.404052 
L 387.982617 240.644814 
L 388.227832 240.893467 
L 388.473047 241.575388 
L 388.718262 241.596842 
L 388.963477 240.456878 
L 388.963477 240.456878 
" style="fill:none;stroke:#ff7f0e;stroke-linecap:square;stroke-width:1.5;"/>
   </g>
   <g id="patch_3">
    <path d="M 54 252 
L 54 34.56 
" style="fill:none;stroke:#000000;stroke-linecap:square;stroke-linejoin:miter;stroke-width:0.8;"/>
   </g>
   <g id="patch_4">
    <path d="M 388.8 252 
L 388.8 34.56 
" style="fill:none;stroke:#000000;stroke-linecap:square;stroke-linejoin:miter;stroke-width:0.8;"/>
   </g>
   <g id="patch_5">
    <path d="M 54 252 
L 388.8 252 
" style="fill:none;stroke:#000000;stroke-linecap:square;stroke-linejoin:miter;stroke-width:0.8;"/>
   </g>
   <g id="patch_6">
    <path d="M 54 34.56 
L 388.8 34.56 
" style="fill:none;stroke:#000000;stroke-linecap:square;stroke-linejoin:miter;stroke-width:0.8;"/>
   </g>
   <g id="text_17">
    <!-- Spektrum dari suara fena_0001_cut.wav -->
    <defs>
     <path d="M 53.515625 70.515625 
L 53.515625 60.890625 
Q 47.90625 63.578125 42.921875 64.890625 
Q 37.9375 66.21875 33.296875 66.21875 
Q 25.25 66.21875 20.875 63.09375 
Q 16.5 59.96875 16.5 54.203125 
Q 16.5 49.359375 19.40625 46.890625 
Q 22.3125 44.4375 30.421875 42.921875 
L 36.375 41.703125 
Q 47.40625 39.59375 52.65625 34.296875 
Q 57.90625 29 57.90625 20.125 
Q 57.90625 9.515625 50.796875 4.046875 
Q 43.703125 -1.421875 29.984375 -1.421875 
Q 24.8125 -1.421875 18.96875 -0.25 
Q 13.140625 0.921875 6.890625 3.21875 
L 6.890625 13.375 
Q 12.890625 10.015625 18.65625 8.296875 
Q 24.421875 6.59375 29.984375 6.59375 
Q 38.421875 6.59375 43.015625 9.90625 
Q 47.609375 13.234375 47.609375 19.390625 
Q 47.609375 24.75 44.3125 27.78125 
Q 41.015625 30.8125 33.5 32.328125 
L 27.484375 33.5 
Q 16.453125 35.6875 11.515625 40.375 
Q 6.59375 45.0625 6.59375 53.421875 
Q 6.59375 63.09375 13.40625 68.65625 
Q 20.21875 74.21875 32.171875 74.21875 
Q 37.3125 74.21875 42.625 73.28125 
Q 47.953125 72.359375 53.515625 70.515625 
z
" id="DejaVuSans-83"/>
     <path d="M 34.28125 27.484375 
Q 23.390625 27.484375 19.1875 25 
Q 14.984375 22.515625 14.984375 16.5 
Q 14.984375 11.71875 18.140625 8.90625 
Q 21.296875 6.109375 26.703125 6.109375 
Q 34.1875 6.109375 38.703125 11.40625 
Q 43.21875 16.703125 43.21875 25.484375 
L 43.21875 27.484375 
z
M 52.203125 31.203125 
L 52.203125 0 
L 43.21875 0 
L 43.21875 8.296875 
Q 40.140625 3.328125 35.546875 0.953125 
Q 30.953125 -1.421875 24.3125 -1.421875 
Q 15.921875 -1.421875 10.953125 3.296875 
Q 6 8.015625 6 15.921875 
Q 6 25.140625 12.171875 29.828125 
Q 18.359375 34.515625 30.609375 34.515625 
L 43.21875 34.515625 
L 43.21875 35.40625 
Q 43.21875 41.609375 39.140625 45 
Q 35.0625 48.390625 27.6875 48.390625 
Q 23 48.390625 18.546875 47.265625 
Q 14.109375 46.140625 10.015625 43.890625 
L 10.015625 52.203125 
Q 14.9375 54.109375 19.578125 55.046875 
Q 24.21875 56 28.609375 56 
Q 40.484375 56 46.34375 49.84375 
Q 52.203125 43.703125 52.203125 31.203125 
z
" id="DejaVuSans-97"/>
     <path d="M 37.109375 75.984375 
L 37.109375 68.5 
L 28.515625 68.5 
Q 23.6875 68.5 21.796875 66.546875 
Q 19.921875 64.59375 19.921875 59.515625 
L 19.921875 54.6875 
L 34.71875 54.6875 
L 34.71875 47.703125 
L 19.921875 47.703125 
L 19.921875 0 
L 10.890625 0 
L 10.890625 47.703125 
L 2.296875 47.703125 
L 2.296875 54.6875 
L 10.890625 54.6875 
L 10.890625 58.5 
Q 10.890625 67.625 15.140625 71.796875 
Q 19.390625 75.984375 28.609375 75.984375 
z
" id="DejaVuSans-102"/>
     <path d="M 50.984375 -16.609375 
L 50.984375 -23.578125 
L -0.984375 -23.578125 
L -0.984375 -16.609375 
z
" id="DejaVuSans-95"/>
     <path d="M 48.78125 52.59375 
L 48.78125 44.1875 
Q 44.96875 46.296875 41.140625 47.34375 
Q 37.3125 48.390625 33.40625 48.390625 
Q 24.65625 48.390625 19.8125 42.84375 
Q 14.984375 37.3125 14.984375 27.296875 
Q 14.984375 17.28125 19.8125 11.734375 
Q 24.65625 6.203125 33.40625 6.203125 
Q 37.3125 6.203125 41.140625 7.25 
Q 44.96875 8.296875 48.78125 10.40625 
L 48.78125 2.09375 
Q 45.015625 0.34375 40.984375 -0.53125 
Q 36.96875 -1.421875 32.421875 -1.421875 
Q 20.0625 -1.421875 12.78125 6.34375 
Q 5.515625 14.109375 5.515625 27.296875 
Q 5.515625 40.671875 12.859375 48.328125 
Q 20.21875 56 33.015625 56 
Q 37.15625 56 41.109375 55.140625 
Q 45.0625 54.296875 48.78125 52.59375 
z
" id="DejaVuSans-99"/>
     <path d="M 10.6875 12.40625 
L 21 12.40625 
L 21 0 
L 10.6875 0 
z
" id="DejaVuSans-46"/>
     <path d="M 4.203125 54.6875 
L 13.1875 54.6875 
L 24.421875 12.015625 
L 35.59375 54.6875 
L 46.1875 54.6875 
L 57.421875 12.015625 
L 68.609375 54.6875 
L 77.59375 54.6875 
L 63.28125 0 
L 52.6875 0 
L 40.921875 44.828125 
L 29.109375 0 
L 18.5 0 
z
" id="DejaVuSans-119"/>
     <path d="M 2.984375 54.6875 
L 12.5 54.6875 
L 29.59375 8.796875 
L 46.6875 54.6875 
L 56.203125 54.6875 
L 35.6875 0 
L 23.484375 0 
z
" id="DejaVuSans-118"/>
    </defs>
    <g transform="translate(100.0125 28.56)scale(0.12 -0.12)">
     <use xlink:href="#DejaVuSans-83"/>
     <use x="63.476562" xlink:href="#DejaVuSans-112"/>
     <use x="126.953125" xlink:href="#DejaVuSans-101"/>
     <use x="188.476562" xlink:href="#DejaVuSans-107"/>
     <use x="246.386719" xlink:href="#DejaVuSans-116"/>
     <use x="285.595703" xlink:href="#DejaVuSans-114"/>
     <use x="326.708984" xlink:href="#DejaVuSans-117"/>
     <use x="390.087891" xlink:href="#DejaVuSans-109"/>
     <use x="487.5" xlink:href="#DejaVuSans-32"/>
     <use x="519.287109" xlink:href="#DejaVuSans-100"/>
     <use x="582.763672" xlink:href="#DejaVuSans-97"/>
     <use x="644.042969" xlink:href="#DejaVuSans-114"/>
     <use x="685.15625" xlink:href="#DejaVuSans-105"/>
     <use x="712.939453" xlink:href="#DejaVuSans-32"/>
     <use x="744.726562" xlink:href="#DejaVuSans-115"/>
     <use x="796.826172" xlink:href="#DejaVuSans-117"/>
     <use x="860.205078" xlink:href="#DejaVuSans-97"/>
     <use x="921.484375" xlink:href="#DejaVuSans-114"/>
     <use x="962.597656" xlink:href="#DejaVuSans-97"/>
     <use x="1023.876953" xlink:href="#DejaVuSans-32"/>
     <use x="1055.664062" xlink:href="#DejaVuSans-102"/>
     <use x="1090.869141" xlink:href="#DejaVuSans-101"/>
     <use x="1152.392578" xlink:href="#DejaVuSans-110"/>
     <use x="1215.771484" xlink:href="#DejaVuSans-97"/>
     <use x="1277.050781" xlink:href="#DejaVuSans-95"/>
     <use x="1327.050781" xlink:href="#DejaVuSans-48"/>
     <use x="1390.673828" xlink:href="#DejaVuSans-48"/>
     <use x="1454.296875" xlink:href="#DejaVuSans-48"/>
     <use x="1517.919922" xlink:href="#DejaVuSans-49"/>
     <use x="1581.542969" xlink:href="#DejaVuSans-95"/>
     <use x="1631.542969" xlink:href="#DejaVuSans-99"/>
     <use x="1686.523438" xlink:href="#DejaVuSans-117"/>
     <use x="1749.902344" xlink:href="#DejaVuSans-116"/>
     <use x="1789.111328" xlink:href="#DejaVuSans-46"/>
     <use x="1820.898438" xlink:href="#DejaVuSans-119"/>
     <use x="1902.685547" xlink:href="#DejaVuSans-97"/>
     <use x="1963.964844" xlink:href="#DejaVuSans-118"/>
    </g>
   </g>
  </g>
 </g>
 <defs>
  <clipPath id="p83f337afdb">
   <rect height="217.44" width="334.8" x="54" y="34.56"/>
  </clipPath>
 </defs>
</svg>
